<?xml version="1.0" encoding="utf-8"?>
<!-- Generator: Adobe Illustrator 22.1.0, SVG Export Plug-In . SVG Version: 6.00 Build 0)  -->
<svg version="1.1" id="Layer_1" xmlns="http://www.w3.org/2000/svg" xmlns:xlink="http://www.w3.org/1999/xlink" x="0px" y="0px"
	 viewBox="0 0 512 512" style="enable-background:new 0 0 512 512;" xml:space="preserve">
<style type="text/css">
	.st0{fill:#331000;}
	.st1{clip-path:url(#SVGID_2_);}
	.st2{fill:none;stroke:#966060;stroke-miterlimit:10;}
	.st3{fill:none;stroke:#966060;stroke-width:1.25;stroke-miterlimit:10;}
	.st4{fill:none;stroke:#966060;stroke-width:1.5625;stroke-miterlimit:10;}
	.st5{fill:none;stroke:#966060;stroke-width:1.9531;stroke-miterlimit:10;}
	.st6{fill:none;stroke:#966060;stroke-width:2.4414;stroke-miterlimit:10;}
	.st7{fill:none;stroke:#966060;stroke-width:3.0518;stroke-miterlimit:10;}
	.st8{fill:none;stroke:#966060;stroke-width:3.8147;stroke-miterlimit:10;}
	.st9{fill:none;stroke:#966060;stroke-width:4.7684;stroke-miterlimit:10;}
	.st10{fill:none;stroke:#966060;stroke-width:5.9605;stroke-miterlimit:10;}
	.st11{fill:none;stroke:#966060;stroke-width:7.4506;stroke-miterlimit:10;}
	.st12{fill:none;stroke:#966060;stroke-width:9.3132;stroke-miterlimit:10;}
	.st13{fill:none;stroke:#966060;stroke-width:11.6415;stroke-miterlimit:10;}
	.st14{fill:none;stroke:#966060;stroke-width:14.5519;stroke-miterlimit:10;}
	.st15{fill:none;stroke:#966060;stroke-width:15;stroke-miterlimit:10;}
	.st16{fill:none;stroke:#966060;stroke-width:22.7374;stroke-miterlimit:10;}
</style>
<g>
	<polygon class="st0" points="332,402 180,402 180,146 332,112 	"/>
</g>
<g>
	<defs>
		<polygon id="SVGID_1_" points="332,402 180,402 180,146 332,112 		"/>
	</defs>
	<clipPath id="SVGID_2_">
		<use xlink:href="#SVGID_1_"  style="overflow:visible;"/>
	</clipPath>
	<g class="st1">
		<line class="st2" x1="158" y1="241" x2="358" y2="196"/>
		<line class="st2" x1="158" y1="241" x2="358" y2="196"/>
		<line class="st3" x1="158" y1="257" x2="358" y2="212"/>
		<line class="st4" x1="158" y1="273" x2="358" y2="228"/>
		<line class="st5" x1="158" y1="289" x2="358" y2="244"/>
		<line class="st6" x1="158" y1="305" x2="358" y2="260"/>
		<line class="st7" x1="158" y1="321" x2="358" y2="276"/>
		<line class="st8" x1="158" y1="337" x2="358" y2="292"/>
		<line class="st9" x1="158" y1="353" x2="358" y2="308"/>
		<line class="st10" x1="158" y1="369" x2="358" y2="324"/>
		<line class="st11" x1="158" y1="385" x2="358" y2="340"/>
		<line class="st12" x1="158" y1="401" x2="358" y2="356"/>
		<line class="st13" x1="158" y1="417" x2="358" y2="372"/>
		<line class="st14" x1="158" y1="433" x2="358" y2="388"/>
		<line class="st15" x1="158" y1="449" x2="358" y2="404"/>
		<line class="st16" x1="158" y1="465" x2="358" y2="420"/>
	</g>
</g>
</svg>
